Coordinates
version=1
nRows=6
nColumns=107
inDegrees=yes

Units are S.I. units (second, meters, Newtons, ...)
If the header above contains a line with 'inDegrees', this indicates whether rotational values are in degrees (yes) or radians (no).

endheader
time	sternoclavicular_r2	sternoclavicular_r3	unrotscap_r3	unrotscap_r2	acromioclavicular_r2	acromioclavicular_r3	acromioclavicular_r1	unrothum_r1	unrothum_r3	unrothum_r2	elv_angle	shoulder_elv	shoulder1_r2	shoulder_rot	elbow_flexion	pro_sup	deviation	flexion	proximal_distal_r1	proximal_distal_r3	cmc_flexion	cmc_abduction	mp_flexion	ip_flexion	mcp2_flexion	mcp2_abduction	pm2_flexion	md2_flexion	mcp3_flexion	mcp3_abduction	pm3_flexion	md3_flexion	mcp4_flexion	mcp4_abduction	pm4_flexion	md4_flexion	mcp5_flexion	mcp5_abduction	pm5_flexion	md5_flexion	bicpt_tx	bicpt_ty	bicpt_tz	bicpt2_tx	bicpt2_ty	bicpt2_tz	ptpt_tx	ptpt_ty	ptpt_tz	FCUpt_tx	FCUpt_ty	FCUpt_tz	EDCpt_tx	EDCpt_ty	EDCpt_tz	APLpt_tx	APLpt_ty	APLpt_tz	FPLpt_tx	FPLpt_ty	FPLpt_tz	FPLpt2_tx	FPLpt2_ty	FPLpt2_tz	PEC1pt2_tx	PEC1pt2_ty	PEC1pt2_tz	PEC1pt3_tx	PEC1pt3_ty	PEC1pt3_tz	PEC2pt2_tx	PEC2pt2_ty	PEC2pt2_tz	PEC2pt3_tx	PEC2pt3_ty	PEC2pt3_tz	PEC3pt2_tx	PEC3pt2_ty	PEC3pt2_tz	PEC3pt3_tx	PEC3pt3_ty	PEC3pt3_tz	DELT2pt2a_tx	DELT2pt2a_ty	DELT2pt2a_tz	DELT2pt2_tx	DELT2pt2_ty	DELT2pt2_tz	LAT1pt2_tx	LAT1pt2_ty	LAT1pt2_tz	LAT1pt3_tx	LAT1pt3_ty	LAT1pt3_tz	LAT2pt2_tx	LAT2pt2_ty	LAT2pt2_tz	LAT2pt3_tx	LAT2pt3_ty	LAT2pt3_tz	LAT3pt2_tx	LAT3pt2_ty	LAT3pt2_tz	LAT3pt3_tx	LAT3pt3_ty	LAT3pt3_tz
      0.50000000	     -0.32619713	      0.13816171	     -0.13816171	      0.32619713	     -0.06604828	      0.53377899	      0.23992998	     -0.23992998	     -0.53377899	      0.06604828	     98.86137339	     77.23006903	     -1.72545647	    -22.60442811	     28.47767722	     65.35008959	      0.34819118	     -0.73505084	      0.37331109	     -0.36752542	     32.42793722	    -18.18668270	     -6.66282739	      5.74492465	     93.54310976	     12.68935265	     80.08918386	     66.11736961	     93.59642535	      1.27572279	     83.21794410	     52.49560356	     95.16171121	    -13.37256269	     90.65497075	     42.46020609	    101.67916694	    -14.09018356	     90.57682634	      5.47072496	      0.00084195	     -0.03086398	     -0.00482574	      0.01588668	     -0.01793610	     -0.00431336	      0.00272137	     -0.06802227	     -0.00531430	      0.01043162	     -0.18287648	     -0.00032440	     -0.00784199	      0.00251063	     -0.00020971	      0.00029958	      0.00011983	      0.00059917	      0.00038347	      0.00115041	      0.00064710	     -0.00001126	     -0.00022650	     -0.00027180	      0.00253143	      0.00888147	      0.00617841	     -0.00828079	      0.01999402	     -0.01896429	      0.00253143	      0.00888147	      0.00617841	      0.00055777	      0.01853523	     -0.00973958	      0.00398798	      0.00493887	      0.01606468	      0.00000000	      0.00797826	      0.00000000	     -0.00725105	     -0.03350930	     -0.00657953	      0.01523381	     -0.00051324	     -0.00425476	     -0.00090102	      0.01510278	     -0.00617841	      0.00248853	      0.02179606	     -0.01802036	     -0.00604969	      0.01308622	     -0.00553483	     -0.01261426	      0.02763123	     -0.03093496	     -0.02368391	      0.01463082	     -0.00742267	     -0.01570346	      0.03192179	     -0.03865797
      0.53333333	     -0.32650552	      0.13829233	     -0.13829233	      0.32650552	     -0.06611073	      0.53428364	      0.24015682	     -0.24015682	     -0.53428364	      0.06611073	     98.71383447	     77.30308482	     -1.72288143	    -22.13370896	     28.64081435	     65.00992533	      0.35496079	     -0.71202332	      0.37860221	     -0.35601166	     32.94391977	    -18.07714023	     -8.71156471	      8.16556408	     92.94831881	     12.67564786	     80.81552162	     64.39325584	     93.36857307	      1.15654202	     83.27587118	     51.57014670	     94.72269705	    -13.37106578	     90.97667627	     42.02773099	    101.37280259	    -14.09562384	     90.66032755	      5.43153981	      0.00084735	     -0.03088268	     -0.00482875	      0.01590566	     -0.01798042	     -0.00436169	      0.00274650	     -0.06800602	     -0.00528690	      0.01039473	     -0.18288599	     -0.00032844	     -0.00780117	      0.00249414	     -0.00020262	      0.00030396	      0.00012158	      0.00060792	      0.00038907	      0.00116721	      0.00065656	     -0.00001168	     -0.00022065	     -0.00026478	      0.00253383	      0.00888986	      0.00618425	     -0.00828862	      0.02001293	     -0.01898222	      0.00253383	      0.00888986	      0.00618425	      0.00055830	      0.01855276	     -0.00974879	      0.00399071	      0.00494354	      0.01607124	      0.00000000	      0.00799346	      0.00000000	     -0.00725791	     -0.03354098	     -0.00659215	      0.01497709	     -0.00049836	     -0.00407423	     -0.00090187	      0.01511706	     -0.00618425	      0.00249088	      0.02181667	     -0.01803740	     -0.00605541	      0.01309859	     -0.00554006	     -0.01262618	      0.02765735	     -0.03096421	     -0.02370630	      0.01464465	     -0.00742969	     -0.01571831	      0.03195197	     -0.03869452
      0.56666667	     -0.32136323	      0.13611430	     -0.13611430	      0.32136323	     -0.06506952	      0.52586895	      0.23637447	     -0.23637447	     -0.52586895	      0.06506952	     99.82696926	     76.08560091	     -1.74230930	    -28.20084118	     29.17711583	     70.74112101	      0.32826247	     -0.72637474	      0.35730001	     -0.36318737	     33.40606816	    -18.21346321	     -8.94595260	      8.82510863	     92.99404563	     12.77639340	     80.89894305	     63.99161524	     93.18882284	      1.50084710	     83.37965186	     50.67633162	     94.49127665	    -13.33533375	     90.81925738	     42.04804893	    101.03197727	    -14.08958000	     90.44600562	      5.45676317	      0.00086509	     -0.03094414	     -0.00483865	      0.01555102	     -0.01812611	     -0.00352596	      0.00232303	     -0.06827985	     -0.00574858	      0.01102103	     -0.18272143	     -0.00024886	     -0.00848891	      0.00277657	     -0.00033032	      0.00030134	      0.00012054	      0.00060268	      0.00038572	      0.00115715	      0.00065090	     -0.00001200	     -0.00021517	     -0.00025821	      0.00249392	      0.00874985	      0.00608685	     -0.00815807	      0.01969773	     -0.01868326	      0.00249392	      0.00874985	      0.00608685	      0.00054951	      0.01826056	     -0.00959525	      0.00394486	      0.00486568	      0.01596011	      0.00000000	      0.00774190	      0.00000000	     -0.00714360	     -0.03301272	     -0.00638334	      0.01805960	     -0.00069614	     -0.00664203	     -0.00088767	      0.01487897	     -0.00608685	      0.00245165	      0.02147307	     -0.01775332	     -0.00596004	      0.01289229	     -0.00545281	     -0.01242733	      0.02722176	     -0.03047654	     -0.02333294	      0.01441401	     -0.00731268	     -0.01547075	      0.03144874	     -0.03808510
      0.60000000	     -0.32292456	      0.13677560	     -0.13677560	      0.32292456	     -0.06538565	      0.52842386	      0.23752289	     -0.23752289	     -0.52842386	      0.06538565	     99.50635431	     76.45526033	     -1.73671351	    -26.36951420	     28.93521654	     68.94723586	      0.33653740	     -0.72590195	      0.36402664	     -0.36295097	     33.70125848	    -18.04073731	     -9.55756560	      8.51354834	     93.29107586	     12.74966197	     80.61387142	     64.65139264	     93.26482107	      1.44032434	     83.28812880	     51.26000775	     94.69632628	    -13.33434317	     90.90154399	     42.04235756	    101.02326527	    -14.09086513	     90.74409293	      5.41862969	      0.00085709	     -0.03091642	     -0.00483419	      0.01567001	     -0.01806039	     -0.00379244	      0.00245558	     -0.06819414	     -0.00560407	      0.01082392	     -0.18277393	     -0.00027640	     -0.00827365	      0.00268709	     -0.00028846	      0.00030142	      0.00012057	      0.00060284	      0.00038582	      0.00115745	      0.00065107	     -0.00001219	     -0.00021156	     -0.00025387	      0.00250604	      0.00879236	      0.00611643	     -0.00819771	      0.01979343	     -0.01877403	      0.00250604	      0.00879236	      0.00611643	      0.00055218	      0.01834928	     -0.00964187	      0.00395884	      0.00488932	      0.01599422	      0.00000000	      0.00781785	      0.00000000	     -0.00717831	     -0.03317312	     -0.00644639	      0.01718066	     -0.00063515	     -0.00581391	     -0.00089198	      0.01495126	     -0.00611643	      0.00246356	      0.02157739	     -0.01783958	     -0.00598900	      0.01295493	     -0.00547930	     -0.01248770	      0.02735402	     -0.03062461	     -0.02344630	      0.01448404	     -0.00734821	     -0.01554592	      0.03160153	     -0.03827014
      0.63333333	     -0.32324687	      0.13691212	     -0.13691212	      0.32324687	     -0.06545092	      0.52895129	      0.23775996	     -0.23775996	     -0.52895129	      0.06545092	     99.52117430	     76.53157084	     -1.73697217	    -26.10539437	     28.68024601	     68.32885903	      0.32713615	     -0.76258676	      0.35637491	     -0.38129338	     33.14214707	    -18.11101553	     -7.87426185	      6.28707568	     93.42101099	     12.72519057	     80.25467060	     66.59556645	     93.38260580	      1.37618946	     83.26386411	     52.24367139	     94.90124790	    -13.35087429	     90.80813862	     42.04685728	    101.38808419	    -14.09541420	     90.62123611	      5.42443888	      0.00084865	     -0.03088719	     -0.00482948	      0.01570935	     -0.01799113	     -0.00388328	      0.00250127	     -0.06816459	     -0.00555426	      0.01075620	     -0.18279182	     -0.00028534	     -0.00819944	      0.00265647	     -0.00027442	      0.00029323	      0.00011729	      0.00058645	      0.00037533	      0.00112598	      0.00063337	     -0.00001183	     -0.00021834	     -0.00026200	      0.00250854	      0.00880114	      0.00612253	     -0.00820589	      0.01981319	     -0.01879277	      0.00250854	      0.00880114	      0.00612253	      0.00055273	      0.01836759	     -0.00965149	      0.00396172	      0.00489420	      0.01600122	      0.00000000	      0.00783357	      0.00000000	     -0.00718547	     -0.03320623	     -0.00645944	      0.01705020	     -0.00062644	     -0.00569815	     -0.00089287	      0.01496619	     -0.00612253	      0.00246602	      0.02159893	     -0.01785738	     -0.00599498	      0.01296786	     -0.00548477	     -0.01250017	      0.02738132	     -0.03065517	     -0.02346970	      0.01449849	     -0.00735554	     -0.01556143	      0.03163308	     -0.03830834
      0.66666667	     -0.32005836	      0.13556161	     -0.13556161	      0.32005836	     -0.06480531	      0.52373370	      0.23541469	     -0.23541469	     -0.52373370	      0.06480531	    100.17142538	     75.77666133	     -1.74832119	    -29.85991146	     29.25958195	     72.19908215	      0.31907709	     -0.73875584	      0.34970071	     -0.36937792	     33.67420015	    -18.23283289	     -8.92558835	      8.42672697	     93.27744826	     12.81671005	     80.67124921	     64.88379780	     93.03024976	      1.76196916	     83.40550265	     51.37949947	     94.81954015	    -13.30073901	     90.99367914	     42.03871632	    100.18133165	    -14.09299551	     90.61121619	      5.43261511	      0.00086782	     -0.03095360	     -0.00484018	      0.01544861	     -0.01814851	     -0.00330589	      0.00221530	     -0.06834950	     -0.00586602	      0.01118200	     -0.18267805	     -0.00022460	     -0.00866387	      0.00285006	     -0.00036569	      0.00029881	      0.00011952	      0.00059762	      0.00038248	      0.00114743	      0.00064543	     -0.00001217	     -0.00021188	     -0.00025426	      0.00248379	      0.00871432	      0.00606214	     -0.00812495	      0.01961775	     -0.01860740	      0.00248379	      0.00871432	      0.00606214	      0.00054728	      0.01818641	     -0.00955629	      0.00393314	      0.00484592	      0.01593134	      0.00000000	      0.00767873	      0.00000000	     -0.00711459	     -0.03287868	     -0.00633089	      0.01881579	     -0.00075232	     -0.00743072	     -0.00088406	      0.01481856	     -0.00606214	      0.00244169	      0.02138588	     -0.01768124	     -0.00593584	      0.01283995	     -0.00543067	     -0.01237687	      0.02711123	     -0.03035279	     -0.02323820	      0.01435548	     -0.00728299	     -0.01540793	      0.03132105	     -0.03793046
